<svg xmlns="http://www.w3.org/2000/svg" viewBox="0 0 700 900" role="img" aria-labelledby="t d"><title id="t">Carta da travessia de Natércia a Jaboti</title><desc id="d">Esquema editorial dos lugares citados no relato familiar; segmentos pontilhados indicam reconstrução, não rota exata.</desc><rect width="700" height="900" fill="#f6f0e2"/><g fill="none" stroke="#a98442" stroke-width="1" opacity=".5"><path d="M55 70H645M55 830H645"/><path d="M70 55V845M630 55V845"/></g><g font-family="Georgia,serif" fill="#17324b"><text x="350" y="105" text-anchor="middle" font-size="28">NATÉRCIA → JABOTI</text><text x="350" y="134" text-anchor="middle" font-size="13" letter-spacing="2">CARTA DA TRAVESSIA · 1910</text></g><g fill="none" stroke="#514d47" stroke-width="3" stroke-linecap="round" stroke-dasharray="4 10" opacity=".72"><path d="M150 205 C245 245 180 315 300 350 S440 405 365 480 S240 585 365 625 S490 695 520 765"/></g><g fill="#a98442"><circle cx="150" cy="205" r="5"/><circle cx="230" cy="295" r="4"/><circle cx="300" cy="350" r="5"/><circle cx="365" cy="480" r="4"/><circle cx="300" cy="575" r="4"/><circle cx="365" cy="625" r="4"/><circle cx="520" cy="765" r="5"/></g><g font-family="Georgia,serif" fill="#302d29" font-size="18"><text x="95" y="190">Natércia</text><text x="245" y="285">Pouso Alegre</text><text x="320" y="340">Mantiqueira</text><text x="385" y="470">Itapetininga</text><text x="185" y="565">Rio Itararé</text><text x="385" y="615">Rio das Cinzas</text><text x="535" y="755">Jaboti</text></g><g font-family="Georgia,serif" fill="#786f62" font-size="12"><text x="95" y="210">Santa Catarina, no relato</text><text x="320" y="360">Vale do Paraíba</text><text x="535" y="775">Faz. Jaboticabal–Marimbondo</text></g><g fill="none" stroke="#514d47" stroke-width="1.5" opacity=".45"><path d="M80 395l95-80 62 54 87-102 78 93 65-57 96 100"/><path d="M80 688c98-34 173 24 264-3s162-30 277 5M82 704c101-27 175 29 265 4s162-25 270 6"/></g><g font-family="Georgia,serif" fill="#786f62" font-size="12"><text x="350" y="815" text-anchor="middle">linha pontilhada = reconstrução editorial entre pontos citados</text></g></svg>